<svg xmlns="http://www.w3.org/2000/svg" viewBox="0 0 1024 1024">
  <rect width="1024" height="1024" fill="#f5f3f0"/>
  <g transform="translate(184, 183) scale(0.64)">
    <path fill="#1a1a1a" d="M442.5 183.7L330.8 854.5h-97.6l63.4-329.3c6.3-32.5 10.5-68.6 12.5-108.3 1.3-24.8 1.9-48.4 1.9-70.9-13.7 23.1-28.3 44.9-43.9 65.5-15.6 20.6-32.4 41.2-50.5 61.9L95.1 611.9 52 542.8 268.5 183.7h174zM820.8 183.7l-9.4 48.8H606.6l-28.1 145.7h170.3l-9.4 48.8H569.1L531 579.5h204.8l-9.4 48.8H507.5l9.4-48.8 38.1-196.5 28.1-145.7 9.4-48.8h228.3z"/>
    <path fill="#1a1a1a" d="M165.2 300.5c-1.8 9.3-3 18.6-3.6 28-1.2 18.7-1.8 36.2-1.8 52.5 0 16.3.6 31.8 1.8 46.5-16.9 27.4-35 53.7-54.3 78.9l-32.5 42.4 155.8-143.7c18.4-16.9 35.2-34.9 50.3-54z"/>
    <path fill="#1a1a1a" d="M700 400.5c0-12.5 10.1-22.6 22.6-22.6 12.5 0 22.6 10.1 22.6 22.6 0 12.5-10.1 22.6-22.6 22.6-12.5 0-22.6-10.1-22.6-22.6z"/>
    <path fill="#1a1a1a" d="M445.3 183.7l-176.8.1 163.9 240.9c15.4-20.2 29.5-41.4 42.2-63.6l-30.9-45.4c.2-23.5.3-46.5.9-68.9.8-31.2 3.6-60.3 6.7-87.1l-6 24z"/>
  </g>
</svg>

<svg xmlns="http://www.w3.org/2000/svg" viewBox="0 0 100 100">
  <rect width="100" height="100" fill="#0a0a0a"/>
  <path d="M 25 75 L 35 45 L 45 75 M 30 60 L 40 60" stroke="#f5f5f5" stroke-width="3" fill="none" stroke-linecap="square"/>
  <path d="M 55 75 L 55 45 M 55 45 L 70 75 M 70 75 L 70 45" stroke="#f5f5f5" stroke-width="3" fill="none" stroke-linecap="square"/>
  <rect x="20" y="20" width="60" height="60" stroke="#ff3366" stroke-width="1.5" fill="none"/>
</svg>
